<mxfile host="app.diagrams.net" modified="2023-09-28T09:17:15.219Z" agent="Mozilla/5.0 (Windows NT 10.0; Win64; x64) AppleWebKit/537.36 (KHTML, like Gecko) Chrome/116.0.0.0 Safari/537.36" etag="KhXdhsLF5rQlDj0UvZsZ" version="21.8.2" type="github">
  <diagram name="第 1 页" id="Xd7TsPpkU-0Lbctq9Hek">
    <mxGraphModel dx="448" dy="727" grid="1" gridSize="10" guides="1" tooltips="1" connect="1" arrows="1" fold="1" page="1" pageScale="1" pageWidth="827" pageHeight="1169" math="0" shadow="0">
      <root>
        <mxCell id="0" />
        <mxCell id="1" parent="0" />
        <mxCell id="z2yuQYyKBL9SRLRq9X4S-1" value="" style="rounded=0;whiteSpace=wrap;html=1;" vertex="1" parent="1">
          <mxGeometry x="10" y="50" width="820" height="600" as="geometry" />
        </mxCell>
        <mxCell id="z2yuQYyKBL9SRLRq9X4S-2" value="nav" style="text;strokeColor=none;fillColor=none;html=1;fontSize=24;fontStyle=1;verticalAlign=middle;align=center;" vertex="1" parent="1">
          <mxGeometry x="290" y="60" width="100" height="50" as="geometry" />
        </mxCell>
        <mxCell id="z2yuQYyKBL9SRLRq9X4S-3" value="" style="rounded=0;whiteSpace=wrap;html=1;" vertex="1" parent="1">
          <mxGeometry x="10" y="50" width="80" height="600" as="geometry" />
        </mxCell>
        <mxCell id="z2yuQYyKBL9SRLRq9X4S-6" value="" style="rounded=0;whiteSpace=wrap;html=1;" vertex="1" parent="1">
          <mxGeometry x="90" y="50" width="170" height="600" as="geometry" />
        </mxCell>
        <mxCell id="z2yuQYyKBL9SRLRq9X4S-9" value="container" style="text;strokeColor=none;fillColor=none;html=1;fontSize=24;fontStyle=1;verticalAlign=middle;align=center;" vertex="1" parent="1">
          <mxGeometry x="120" y="70" width="100" height="40" as="geometry" />
        </mxCell>
        <mxCell id="z2yuQYyKBL9SRLRq9X4S-11" value="header" style="text;strokeColor=none;fillColor=none;html=1;fontSize=24;fontStyle=1;verticalAlign=middle;align=center;" vertex="1" parent="1">
          <mxGeometry y="70" width="100" height="40" as="geometry" />
        </mxCell>
        <mxCell id="z2yuQYyKBL9SRLRq9X4S-13" value="" style="rounded=0;whiteSpace=wrap;html=1;" vertex="1" parent="1">
          <mxGeometry x="100" y="120" width="150" height="100" as="geometry" />
        </mxCell>
        <mxCell id="z2yuQYyKBL9SRLRq9X4S-14" value="card_container" style="text;strokeColor=none;fillColor=none;html=1;fontSize=24;fontStyle=1;verticalAlign=middle;align=center;" vertex="1" parent="1">
          <mxGeometry x="140" y="150" width="70" height="30" as="geometry" />
        </mxCell>
        <mxCell id="z2yuQYyKBL9SRLRq9X4S-23" value="" style="rounded=0;whiteSpace=wrap;html=1;" vertex="1" parent="1">
          <mxGeometry x="285" y="110" width="455" height="110" as="geometry" />
        </mxCell>
        <mxCell id="z2yuQYyKBL9SRLRq9X4S-15" value="" style="rounded=0;whiteSpace=wrap;html=1;" vertex="1" parent="1">
          <mxGeometry x="300" y="130" width="110" height="80" as="geometry" />
        </mxCell>
        <mxCell id="z2yuQYyKBL9SRLRq9X4S-16" value="" style="rounded=0;whiteSpace=wrap;html=1;" vertex="1" parent="1">
          <mxGeometry x="580" y="130" width="130" height="80" as="geometry" />
        </mxCell>
        <mxCell id="z2yuQYyKBL9SRLRq9X4S-17" value="" style="rounded=0;whiteSpace=wrap;html=1;" vertex="1" parent="1">
          <mxGeometry x="430" y="130" width="120" height="80" as="geometry" />
        </mxCell>
        <mxCell id="z2yuQYyKBL9SRLRq9X4S-18" value="step" style="text;strokeColor=none;fillColor=none;html=1;fontSize=24;fontStyle=1;verticalAlign=middle;align=center;" vertex="1" parent="1">
          <mxGeometry x="305" y="150" width="100" height="40" as="geometry" />
        </mxCell>
        <mxCell id="z2yuQYyKBL9SRLRq9X4S-19" value="step" style="text;strokeColor=none;fillColor=none;html=1;fontSize=24;fontStyle=1;verticalAlign=middle;align=center;" vertex="1" parent="1">
          <mxGeometry x="440" y="150" width="100" height="40" as="geometry" />
        </mxCell>
        <mxCell id="z2yuQYyKBL9SRLRq9X4S-20" value="step" style="text;strokeColor=none;fillColor=none;html=1;fontSize=24;fontStyle=1;verticalAlign=middle;align=center;" vertex="1" parent="1">
          <mxGeometry x="590" y="150" width="100" height="40" as="geometry" />
        </mxCell>
        <mxCell id="z2yuQYyKBL9SRLRq9X4S-21" value="" style="rounded=0;whiteSpace=wrap;html=1;" vertex="1" parent="1">
          <mxGeometry x="285" y="250" width="460" height="370" as="geometry" />
        </mxCell>
        <mxCell id="z2yuQYyKBL9SRLRq9X4S-22" value="content_container" style="text;strokeColor=none;fillColor=none;html=1;fontSize=24;fontStyle=1;verticalAlign=middle;align=center;" vertex="1" parent="1">
          <mxGeometry x="340" y="240" width="100" height="40" as="geometry" />
        </mxCell>
        <mxCell id="z2yuQYyKBL9SRLRq9X4S-24" value="step_container" style="text;strokeColor=none;fillColor=none;html=1;fontSize=24;fontStyle=1;verticalAlign=middle;align=center;" vertex="1" parent="1">
          <mxGeometry x="330" y="100" width="100" height="40" as="geometry" />
        </mxCell>
        <mxCell id="z2yuQYyKBL9SRLRq9X4S-25" value="" style="rounded=0;whiteSpace=wrap;html=1;" vertex="1" parent="1">
          <mxGeometry x="295" y="280" width="395" height="90" as="geometry" />
        </mxCell>
        <mxCell id="z2yuQYyKBL9SRLRq9X4S-26" value="Title" style="text;strokeColor=none;fillColor=none;html=1;fontSize=24;fontStyle=1;verticalAlign=middle;align=center;" vertex="1" parent="1">
          <mxGeometry x="295" y="280" width="100" height="40" as="geometry" />
        </mxCell>
        <mxCell id="z2yuQYyKBL9SRLRq9X4S-27" value="" style="rounded=0;whiteSpace=wrap;html=1;" vertex="1" parent="1">
          <mxGeometry x="294" y="380" width="396" height="150" as="geometry" />
        </mxCell>
        <mxCell id="z2yuQYyKBL9SRLRq9X4S-28" value="container" style="rounded=0;whiteSpace=wrap;html=1;" vertex="1" parent="1">
          <mxGeometry x="310" y="400" width="120" height="60" as="geometry" />
        </mxCell>
        <mxCell id="z2yuQYyKBL9SRLRq9X4S-29" value="" style="rounded=0;whiteSpace=wrap;html=1;" vertex="1" parent="1">
          <mxGeometry x="294" y="540" width="396" height="60" as="geometry" />
        </mxCell>
        <mxCell id="z2yuQYyKBL9SRLRq9X4S-30" value="btn" style="text;strokeColor=none;fillColor=none;html=1;fontSize=24;fontStyle=1;verticalAlign=middle;align=center;" vertex="1" parent="1">
          <mxGeometry x="310" y="545" width="100" height="40" as="geometry" />
        </mxCell>
      </root>
    </mxGraphModel>
  </diagram>
</mxfile>
